<svg width="16" height="22" viewBox="0 0 16 22" fill="none" xmlns="http://www.w3.org/2000/svg">
<path fill-rule="evenodd" clip-rule="evenodd" d="M7.84455 20.2619C4.15273 20.2619 1 19.6874 1 17.3866C1 15.0859 4.13273 12.9619 7.84455 12.9619C11.5364 12.9619 14.6891 15.0653 14.6891 17.3661C14.6891 19.6659 11.5564 20.2619 7.84455 20.2619Z" stroke="white" stroke-width="1.5" stroke-linecap="round" stroke-linejoin="round"/>
<path fill-rule="evenodd" clip-rule="evenodd" d="M7.83725 9.77364C10.26 9.77364 12.2236 7.81 12.2236 5.38727C12.2236 2.96455 10.26 1 7.83725 1C5.41452 1 3.44998 2.96455 3.44998 5.38727C3.4418 7.80182 5.3918 9.76546 7.80634 9.77364C7.81725 9.77364 7.82725 9.77364 7.83725 9.77364Z" stroke="white" stroke-width="1.5" stroke-linecap="round" stroke-linejoin="round"/>
</svg>
