<svg width="22" height="19" viewBox="0 0 22 19" fill="none" xmlns="http://www.w3.org/2000/svg">
<path fill-rule="evenodd" clip-rule="evenodd" d="M10.9726 17.3682C7.73355 17.3682 4.96655 16.8782 4.96655 14.9162C4.96655 12.9542 7.71555 11.2462 10.9726 11.2462C14.2116 11.2462 16.9786 12.9382 16.9786 14.8992C16.9786 16.8602 14.2296 17.3682 10.9726 17.3682Z" stroke="black" stroke-width="1.5" stroke-linecap="round" stroke-linejoin="round"/>
<path fill-rule="evenodd" clip-rule="evenodd" d="M10.9726 8.44876C13.0986 8.44876 14.8226 6.72576 14.8226 4.59976C14.8226 2.47376 13.0986 0.749756 10.9726 0.749756C8.84657 0.749756 7.12257 2.47376 7.12257 4.59976C7.11657 6.71776 8.82657 8.44176 10.9456 8.44876H10.9726Z" stroke="black" stroke-width="1.5" stroke-linecap="round" stroke-linejoin="round"/>
<path d="M17.362 7.39166C18.599 7.06066 19.511 5.93266 19.511 4.58966C19.511 3.18866 18.518 2.01866 17.196 1.74866" stroke="black" stroke-width="1.5" stroke-linecap="round" stroke-linejoin="round"/>
<path d="M17.9431 10.5444C19.6971 10.5444 21.1951 11.7334 21.1951 12.7954C21.1951 13.4204 20.6781 14.1014 19.8941 14.2854" stroke="black" stroke-width="1.5" stroke-linecap="round" stroke-linejoin="round"/>
<path d="M4.58384 7.39166C3.34584 7.06066 2.43384 5.93266 2.43384 4.58966C2.43384 3.18866 3.42784 2.01866 4.74884 1.74866" stroke="black" stroke-width="1.5" stroke-linecap="round" stroke-linejoin="round"/>
<path d="M4.00176 10.5444C2.24776 10.5444 0.749756 11.7334 0.749756 12.7954C0.749756 13.4204 1.26676 14.1014 2.05176 14.2854" stroke="black" stroke-width="1.5" stroke-linecap="round" stroke-linejoin="round"/>
</svg>
